<svg width="512" height="512" viewBox="0 0 512 512" fill="none" xmlns="http://www.w3.org/2000/svg">
  <defs>
    <linearGradient id="bg" x1="74" y1="38" x2="438" y2="474" gradientUnits="userSpaceOnUse">
      <stop stop-color="#07364A" />
      <stop offset="0.52" stop-color="#0B1F33" />
      <stop offset="1" stop-color="#111827" />
    </linearGradient>
    <radialGradient id="auraTop" cx="0" cy="0" r="1" gradientUnits="userSpaceOnUse" gradientTransform="translate(154 112) rotate(57) scale(224)">
      <stop stop-color="#3EE7D5" stop-opacity="0.56" />
      <stop offset="1" stop-color="#3EE7D5" stop-opacity="0" />
    </radialGradient>
    <radialGradient id="auraBottom" cx="0" cy="0" r="1" gradientUnits="userSpaceOnUse" gradientTransform="translate(400 390) rotate(139) scale(218)">
      <stop stop-color="#56F09A" stop-opacity="0.42" />
      <stop offset="1" stop-color="#56F09A" stop-opacity="0" />
    </radialGradient>
    <linearGradient id="bolt" x1="192" y1="120" x2="342" y2="389" gradientUnits="userSpaceOnUse">
      <stop stop-color="#D8FFF7" />
      <stop offset="0.46" stop-color="#48E3D0" />
      <stop offset="1" stop-color="#55F29B" />
    </linearGradient>
    <linearGradient id="curve" x1="113" y1="344" x2="419" y2="139" gradientUnits="userSpaceOnUse">
      <stop stop-color="#75F2BE" />
      <stop offset="0.52" stop-color="#8AF3FF" />
      <stop offset="1" stop-color="#D7FFF6" />
    </linearGradient>
    <linearGradient id="node" x1="107" y1="116" x2="420" y2="378" gradientUnits="userSpaceOnUse">
      <stop stop-color="#A8FFF5" />
      <stop offset="1" stop-color="#6EF4A4" />
    </linearGradient>
    <filter id="glow" x="72" y="81" width="386" height="352" color-interpolation-filters="sRGB" filterUnits="userSpaceOnUse">
      <feDropShadow dx="0" dy="16" stdDeviation="18" flood-color="#022B36" flood-opacity="0.42" />
      <feDropShadow dx="0" dy="0" stdDeviation="8" flood-color="#65F3D1" flood-opacity="0.32" />
    </filter>
    <clipPath id="round">
      <rect width="512" height="512" rx="104" />
    </clipPath>
  </defs>

  <g clip-path="url(#round)">
    <rect width="512" height="512" rx="104" fill="url(#bg)" />
    <rect width="512" height="512" rx="104" fill="url(#auraTop)" />
    <rect width="512" height="512" rx="104" fill="url(#auraBottom)" />

    <path d="M91 356L172 286L251 315L330 219L421 171" stroke="#A7F3D0" stroke-opacity="0.12" stroke-width="6" stroke-linecap="round" />
    <path d="M98 180H414M98 246H414M98 312H414" stroke="#D7FFF6" stroke-opacity="0.06" stroke-width="4" stroke-linecap="round" />
    <path d="M169 96V410M255 96V410M341 96V410" stroke="#D7FFF6" stroke-opacity="0.05" stroke-width="4" stroke-linecap="round" />

    <g filter="url(#glow)">
      <path d="M294 113L162 292H244L215 399L369 211H291L323 113H294Z" fill="url(#bolt)" />
      <path d="M116 344C161 284 207 303 257 247C303 195 348 164 406 141" stroke="url(#curve)" stroke-width="24" stroke-linecap="round" stroke-linejoin="round" />
      <path d="M395 121L430 134L407 164" stroke="#D7FFF6" stroke-width="20" stroke-linecap="round" stroke-linejoin="round" />
    </g>

    <circle cx="116" cy="344" r="27" fill="#0B1F33" stroke="url(#node)" stroke-width="14" />
    <circle cx="257" cy="247" r="20" fill="#0B1F33" stroke="url(#node)" stroke-width="12" />
    <circle cx="406" cy="141" r="24" fill="#0B1F33" stroke="url(#node)" stroke-width="13" />

    <path d="M104 414C149 439 218 452 293 431C369 410 422 365 448 315" stroke="#CFFEF4" stroke-opacity="0.12" stroke-width="12" stroke-linecap="round" />
  </g>
</svg>
